<mxfile host="app.diagrams.net" modified="2023-09-30T19:12:01.548Z" agent="Mozilla/5.0 (Windows NT 10.0; Win64; x64; rv:109.0) Gecko/20100101 Firefox/117.0" etag="r0lwA4af4Gzezi3QcNWy" version="22.0.0" type="github">
  <diagram name="Page-1" id="b5NVP_9jVtskwhASZ5UH">
    <mxGraphModel dx="2927" dy="1116" grid="1" gridSize="10" guides="1" tooltips="1" connect="1" arrows="1" fold="1" page="1" pageScale="1" pageWidth="827" pageHeight="1169" math="0" shadow="0">
      <root>
        <mxCell id="0" />
        <mxCell id="1" parent="0" />
        <mxCell id="9emtBQFoJuCTRoUykFiL-3" style="edgeStyle=orthogonalEdgeStyle;rounded=0;orthogonalLoop=1;jettySize=auto;html=1;" parent="1" source="cFowtM8nGDFWOl0pQlT--1" target="9emtBQFoJuCTRoUykFiL-2" edge="1">
          <mxGeometry relative="1" as="geometry" />
        </mxCell>
        <mxCell id="cFowtM8nGDFWOl0pQlT--1" value="1. Welcome" style="rounded=0;whiteSpace=wrap;html=1;fillColor=#76608a;strokeColor=#432D57;fontColor=#ffffff;" parent="1" vertex="1">
          <mxGeometry x="-383" y="4" width="75" height="40" as="geometry" />
        </mxCell>
        <mxCell id="9emtBQFoJuCTRoUykFiL-29" style="edgeStyle=orthogonalEdgeStyle;rounded=0;orthogonalLoop=1;jettySize=auto;html=1;" parent="1" source="9emtBQFoJuCTRoUykFiL-1" target="9emtBQFoJuCTRoUykFiL-28" edge="1">
          <mxGeometry relative="1" as="geometry" />
        </mxCell>
        <mxCell id="9emtBQFoJuCTRoUykFiL-1" value="10. Suggest all suitable&lt;br&gt;Restaurant" style="rounded=0;whiteSpace=wrap;html=1;fillColor=#76608a;fontColor=#ffffff;strokeColor=#432D57;" parent="1" vertex="1">
          <mxGeometry x="-125" y="918" width="120" height="60" as="geometry" />
        </mxCell>
        <mxCell id="OZZsg3iI7NkFLa2h2YQp-39" style="edgeStyle=orthogonalEdgeStyle;rounded=0;orthogonalLoop=1;jettySize=auto;html=1;exitX=0.5;exitY=1;exitDx=0;exitDy=0;entryX=0.5;entryY=0;entryDx=0;entryDy=0;" parent="1" source="9emtBQFoJuCTRoUykFiL-2" target="OZZsg3iI7NkFLa2h2YQp-16" edge="1">
          <mxGeometry relative="1" as="geometry" />
        </mxCell>
        <mxCell id="9emtBQFoJuCTRoUykFiL-2" value="Express preferences" style="ellipse;whiteSpace=wrap;html=1;fillColor=#6d8764;fontColor=#ffffff;strokeColor=#3A5431;" parent="1" vertex="1">
          <mxGeometry x="-405.5" y="64" width="120" height="50" as="geometry" />
        </mxCell>
        <mxCell id="NOw_XCwe5CAeWql_Ks_G-5" style="edgeStyle=orthogonalEdgeStyle;rounded=0;orthogonalLoop=1;jettySize=auto;html=1;exitX=0.5;exitY=1;exitDx=0;exitDy=0;entryX=0.5;entryY=0;entryDx=0;entryDy=0;" parent="1" source="9emtBQFoJuCTRoUykFiL-4" target="9emtBQFoJuCTRoUykFiL-5" edge="1">
          <mxGeometry relative="1" as="geometry">
            <mxPoint x="-345.5" y="492" as="targetPoint" />
          </mxGeometry>
        </mxCell>
        <mxCell id="NOw_XCwe5CAeWql_Ks_G-6" value="yes" style="edgeLabel;html=1;align=center;verticalAlign=middle;resizable=0;points=[];" parent="NOw_XCwe5CAeWql_Ks_G-5" vertex="1" connectable="0">
          <mxGeometry x="-0.1629" y="1" relative="1" as="geometry">
            <mxPoint as="offset" />
          </mxGeometry>
        </mxCell>
        <mxCell id="OZZsg3iI7NkFLa2h2YQp-29" style="edgeStyle=orthogonalEdgeStyle;rounded=0;orthogonalLoop=1;jettySize=auto;html=1;exitX=1;exitY=0.5;exitDx=0;exitDy=0;entryX=0;entryY=0.5;entryDx=0;entryDy=0;" parent="1" source="9emtBQFoJuCTRoUykFiL-4" target="9emtBQFoJuCTRoUykFiL-9" edge="1">
          <mxGeometry relative="1" as="geometry" />
        </mxCell>
        <mxCell id="OZZsg3iI7NkFLa2h2YQp-30" value="no" style="edgeLabel;html=1;align=center;verticalAlign=middle;resizable=0;points=[];" parent="OZZsg3iI7NkFLa2h2YQp-29" vertex="1" connectable="0">
          <mxGeometry x="0.0924" y="1" relative="1" as="geometry">
            <mxPoint x="-4" as="offset" />
          </mxGeometry>
        </mxCell>
        <mxCell id="9emtBQFoJuCTRoUykFiL-4" value="Area&lt;br&gt;expressed?" style="rhombus;whiteSpace=wrap;html=1;fillColor=#76608a;fontColor=#ffffff;strokeColor=#432D57;" parent="1" vertex="1">
          <mxGeometry x="-395.5" y="400" width="100" height="83" as="geometry" />
        </mxCell>
        <mxCell id="9emtBQFoJuCTRoUykFiL-17" value="no" style="edgeStyle=orthogonalEdgeStyle;rounded=0;orthogonalLoop=1;jettySize=auto;html=1;" parent="1" source="9emtBQFoJuCTRoUykFiL-5" target="9emtBQFoJuCTRoUykFiL-15" edge="1">
          <mxGeometry relative="1" as="geometry" />
        </mxCell>
        <mxCell id="9emtBQFoJuCTRoUykFiL-5" value="Price range&lt;br&gt;expressed?" style="rhombus;whiteSpace=wrap;html=1;fillColor=#76608a;fontColor=#ffffff;strokeColor=#432D57;" parent="1" vertex="1">
          <mxGeometry x="-395.5" y="524.25" width="100" height="85" as="geometry" />
        </mxCell>
        <mxCell id="9emtBQFoJuCTRoUykFiL-23" value="no" style="edgeStyle=orthogonalEdgeStyle;rounded=0;orthogonalLoop=1;jettySize=auto;html=1;" parent="1" source="9emtBQFoJuCTRoUykFiL-6" target="9emtBQFoJuCTRoUykFiL-22" edge="1">
          <mxGeometry relative="1" as="geometry" />
        </mxCell>
        <mxCell id="R_T_qnn50K4IRs_C791W-4" value="yes" style="edgeStyle=orthogonalEdgeStyle;rounded=0;orthogonalLoop=1;jettySize=auto;html=1;entryX=0.5;entryY=0;entryDx=0;entryDy=0;" edge="1" parent="1" source="9emtBQFoJuCTRoUykFiL-6" target="qg6AqYRdWCEbCaG56nRq-1">
          <mxGeometry relative="1" as="geometry" />
        </mxCell>
        <mxCell id="9emtBQFoJuCTRoUykFiL-6" value="Food type&amp;nbsp;&lt;br&gt;expressed?" style="rhombus;whiteSpace=wrap;html=1;fillColor=#76608a;fontColor=#ffffff;strokeColor=#432D57;" parent="1" vertex="1">
          <mxGeometry x="-390.5" y="663" width="90" height="80" as="geometry" />
        </mxCell>
        <mxCell id="OZZsg3iI7NkFLa2h2YQp-32" style="edgeStyle=orthogonalEdgeStyle;rounded=0;orthogonalLoop=1;jettySize=auto;html=1;exitX=0.25;exitY=0;exitDx=0;exitDy=0;entryX=0.689;entryY=0.942;entryDx=0;entryDy=0;entryPerimeter=0;" parent="1" edge="1">
          <mxGeometry relative="1" as="geometry">
            <Array as="points">
              <mxPoint x="-208.18" y="111" />
            </Array>
            <mxPoint x="-208.18" y="426" as="sourcePoint" />
            <mxPoint x="-307.9999999999997" y="111.10000000000002" as="targetPoint" />
          </mxGeometry>
        </mxCell>
        <mxCell id="9emtBQFoJuCTRoUykFiL-9" value="3. Ask area" style="rounded=0;whiteSpace=wrap;html=1;fillColor=#76608a;fontColor=#ffffff;strokeColor=#432D57;" parent="1" vertex="1">
          <mxGeometry x="-243" y="422" width="80" height="40" as="geometry" />
        </mxCell>
        <mxCell id="OZZsg3iI7NkFLa2h2YQp-34" style="edgeStyle=orthogonalEdgeStyle;rounded=0;orthogonalLoop=1;jettySize=auto;html=1;exitX=0.5;exitY=0;exitDx=0;exitDy=0;entryX=1;entryY=0.652;entryDx=0;entryDy=0;entryPerimeter=0;" parent="1" source="9emtBQFoJuCTRoUykFiL-15" target="9emtBQFoJuCTRoUykFiL-2" edge="1">
          <mxGeometry relative="1" as="geometry">
            <mxPoint x="-143" y="160" as="targetPoint" />
          </mxGeometry>
        </mxCell>
        <mxCell id="9emtBQFoJuCTRoUykFiL-15" value="4. Ask price range" style="rounded=0;whiteSpace=wrap;html=1;fillColor=#76608a;fontColor=#ffffff;strokeColor=#432D57;" parent="1" vertex="1">
          <mxGeometry x="-183" y="547.75" width="80" height="40" as="geometry" />
        </mxCell>
        <mxCell id="OZZsg3iI7NkFLa2h2YQp-35" style="edgeStyle=orthogonalEdgeStyle;rounded=0;orthogonalLoop=1;jettySize=auto;html=1;exitX=0.5;exitY=0;exitDx=0;exitDy=0;entryX=1;entryY=0.5;entryDx=0;entryDy=0;" parent="1" source="9emtBQFoJuCTRoUykFiL-22" target="9emtBQFoJuCTRoUykFiL-2" edge="1">
          <mxGeometry relative="1" as="geometry" />
        </mxCell>
        <mxCell id="9emtBQFoJuCTRoUykFiL-22" value="5. Ask food type" style="rounded=0;whiteSpace=wrap;html=1;fillColor=#76608a;fontColor=#ffffff;strokeColor=#432D57;" parent="1" vertex="1">
          <mxGeometry x="-125" y="684" width="80" height="40" as="geometry" />
        </mxCell>
        <mxCell id="xaN_TmenIA3bTOcWhR8l-3" style="edgeStyle=orthogonalEdgeStyle;rounded=0;orthogonalLoop=1;jettySize=auto;html=1;exitX=0.5;exitY=1;exitDx=0;exitDy=0;entryX=0.5;entryY=0;entryDx=0;entryDy=0;" parent="1" source="9emtBQFoJuCTRoUykFiL-28" target="9emtBQFoJuCTRoUykFiL-34" edge="1">
          <mxGeometry relative="1" as="geometry" />
        </mxCell>
        <mxCell id="9emtBQFoJuCTRoUykFiL-28" value="User response" style="ellipse;whiteSpace=wrap;html=1;fillColor=#6d8764;fontColor=#ffffff;strokeColor=#3A5431;" parent="1" vertex="1">
          <mxGeometry x="-270" y="918" width="100" height="60" as="geometry" />
        </mxCell>
        <mxCell id="xaN_TmenIA3bTOcWhR8l-1" style="edgeStyle=orthogonalEdgeStyle;rounded=0;orthogonalLoop=1;jettySize=auto;html=1;exitX=1;exitY=0.5;exitDx=0;exitDy=0;entryX=0;entryY=0.5;entryDx=0;entryDy=0;" parent="1" source="9emtBQFoJuCTRoUykFiL-34" target="lJSXZF7D1Kf3d4Dtztef-19" edge="1">
          <mxGeometry relative="1" as="geometry" />
        </mxCell>
        <mxCell id="xaN_TmenIA3bTOcWhR8l-2" value="no" style="edgeLabel;html=1;align=center;verticalAlign=middle;resizable=0;points=[];" parent="xaN_TmenIA3bTOcWhR8l-1" vertex="1" connectable="0">
          <mxGeometry x="-0.2286" relative="1" as="geometry">
            <mxPoint as="offset" />
          </mxGeometry>
        </mxCell>
        <mxCell id="R_T_qnn50K4IRs_C791W-10" value="yes" style="edgeStyle=orthogonalEdgeStyle;rounded=0;orthogonalLoop=1;jettySize=auto;html=1;entryX=1;entryY=0.75;entryDx=0;entryDy=0;" edge="1" parent="1" source="9emtBQFoJuCTRoUykFiL-34" target="9emtBQFoJuCTRoUykFiL-46">
          <mxGeometry relative="1" as="geometry" />
        </mxCell>
        <mxCell id="9emtBQFoJuCTRoUykFiL-34" value="User asks for restaurant details?" style="rhombus;whiteSpace=wrap;html=1;fillColor=#76608a;fontColor=#ffffff;strokeColor=#432D57;" parent="1" vertex="1">
          <mxGeometry x="-276" y="997" width="110" height="100" as="geometry" />
        </mxCell>
        <mxCell id="9emtBQFoJuCTRoUykFiL-40" value="6. Express that no restaurant is possible with current information" style="rounded=0;whiteSpace=wrap;html=1;fillColor=#76608a;fontColor=#ffffff;strokeColor=#432D57;" parent="1" vertex="1">
          <mxGeometry x="-572" y="670" width="140" height="60" as="geometry" />
        </mxCell>
        <mxCell id="lJSXZF7D1Kf3d4Dtztef-2" style="edgeStyle=orthogonalEdgeStyle;rounded=0;orthogonalLoop=1;jettySize=auto;html=1;exitX=0.5;exitY=0;exitDx=0;exitDy=0;entryX=0.5;entryY=1;entryDx=0;entryDy=0;" parent="1" source="9emtBQFoJuCTRoUykFiL-41" target="lJSXZF7D1Kf3d4Dtztef-1" edge="1">
          <mxGeometry relative="1" as="geometry" />
        </mxCell>
        <mxCell id="9emtBQFoJuCTRoUykFiL-41" value="User Expresses what he/she wants" style="ellipse;whiteSpace=wrap;html=1;fillColor=#6d8764;fontColor=#ffffff;strokeColor=#3A5431;" parent="1" vertex="1">
          <mxGeometry x="-617" y="529.25" width="140" height="80" as="geometry" />
        </mxCell>
        <mxCell id="9emtBQFoJuCTRoUykFiL-44" value="12. Goodbye" style="rounded=0;whiteSpace=wrap;html=1;fillColor=#76608a;fontColor=#ffffff;strokeColor=#432D57;" parent="1" vertex="1">
          <mxGeometry x="-818" y="1103" width="120" height="60" as="geometry" />
        </mxCell>
        <mxCell id="9emtBQFoJuCTRoUykFiL-49" value="" style="edgeStyle=orthogonalEdgeStyle;rounded=0;orthogonalLoop=1;jettySize=auto;html=1;exitX=-0.001;exitY=0.392;exitDx=0;exitDy=0;exitPerimeter=0;" parent="1" source="9emtBQFoJuCTRoUykFiL-46" target="9emtBQFoJuCTRoUykFiL-48" edge="1">
          <mxGeometry relative="1" as="geometry" />
        </mxCell>
        <mxCell id="9emtBQFoJuCTRoUykFiL-46" value="11. Provide asked restaurant details (such as phone number, address, postal code etc.)" style="rounded=0;whiteSpace=wrap;html=1;fillColor=#76608a;fontColor=#ffffff;strokeColor=#432D57;" parent="1" vertex="1">
          <mxGeometry x="-460" y="979" width="120" height="90" as="geometry" />
        </mxCell>
        <mxCell id="lJSXZF7D1Kf3d4Dtztef-32" style="edgeStyle=orthogonalEdgeStyle;rounded=0;orthogonalLoop=1;jettySize=auto;html=1;exitX=0;exitY=0.5;exitDx=0;exitDy=0;entryX=1;entryY=0.5;entryDx=0;entryDy=0;" parent="1" source="9emtBQFoJuCTRoUykFiL-48" target="9emtBQFoJuCTRoUykFiL-50" edge="1">
          <mxGeometry relative="1" as="geometry">
            <mxPoint x="801.1500000000001" y="805" as="targetPoint" />
          </mxGeometry>
        </mxCell>
        <mxCell id="9emtBQFoJuCTRoUykFiL-48" value="User response" style="ellipse;whiteSpace=wrap;html=1;fillColor=#6d8764;fontColor=#ffffff;strokeColor=#3A5431;" parent="1" vertex="1">
          <mxGeometry x="-612" y="990" width="110" height="50" as="geometry" />
        </mxCell>
        <mxCell id="lJSXZF7D1Kf3d4Dtztef-30" style="edgeStyle=orthogonalEdgeStyle;rounded=0;orthogonalLoop=1;jettySize=auto;html=1;exitX=0.5;exitY=0;exitDx=0;exitDy=0;entryX=0.5;entryY=0;entryDx=0;entryDy=0;" parent="1" source="9emtBQFoJuCTRoUykFiL-50" target="9emtBQFoJuCTRoUykFiL-46" edge="1">
          <mxGeometry relative="1" as="geometry">
            <Array as="points">
              <mxPoint x="-710" y="950" />
              <mxPoint x="-400" y="950" />
            </Array>
          </mxGeometry>
        </mxCell>
        <mxCell id="lJSXZF7D1Kf3d4Dtztef-31" value="yes" style="edgeLabel;html=1;align=center;verticalAlign=middle;resizable=0;points=[];" parent="lJSXZF7D1Kf3d4Dtztef-30" vertex="1" connectable="0">
          <mxGeometry x="-0.5766" relative="1" as="geometry">
            <mxPoint x="-10" y="-2" as="offset" />
          </mxGeometry>
        </mxCell>
        <mxCell id="9emtBQFoJuCTRoUykFiL-50" value="Request that still &lt;br&gt;needs to be &lt;br&gt;handled?" style="rhombus;whiteSpace=wrap;html=1;fillColor=#76608a;fontColor=#ffffff;strokeColor=#432D57;" parent="1" vertex="1">
          <mxGeometry x="-775" y="965" width="130" height="100" as="geometry" />
        </mxCell>
        <mxCell id="SgVEHP1aC8Nxf148HGIK-13" style="edgeStyle=orthogonalEdgeStyle;rounded=0;orthogonalLoop=1;jettySize=auto;html=1;" parent="1" source="9emtBQFoJuCTRoUykFiL-5" target="9emtBQFoJuCTRoUykFiL-6" edge="1">
          <mxGeometry relative="1" as="geometry">
            <mxPoint x="-353" y="590" as="sourcePoint" />
            <mxPoint x="-344" y="733" as="targetPoint" />
            <Array as="points" />
          </mxGeometry>
        </mxCell>
        <mxCell id="SgVEHP1aC8Nxf148HGIK-14" value="yes" style="edgeLabel;html=1;align=center;verticalAlign=middle;resizable=0;points=[];" parent="SgVEHP1aC8Nxf148HGIK-13" vertex="1" connectable="0">
          <mxGeometry x="-0.1556" y="-1" relative="1" as="geometry">
            <mxPoint as="offset" />
          </mxGeometry>
        </mxCell>
        <mxCell id="NOw_XCwe5CAeWql_Ks_G-12" style="edgeStyle=orthogonalEdgeStyle;rounded=0;orthogonalLoop=1;jettySize=auto;html=1;exitX=1;exitY=0.5;exitDx=0;exitDy=0;entryX=0;entryY=0.5;entryDx=0;entryDy=0;" parent="1" source="pUPe7-vXU53xOh2iTXP--1" target="NOw_XCwe5CAeWql_Ks_G-3" edge="1">
          <mxGeometry relative="1" as="geometry" />
        </mxCell>
        <mxCell id="NOw_XCwe5CAeWql_Ks_G-13" value="yes" style="edgeLabel;html=1;align=center;verticalAlign=middle;resizable=0;points=[];" parent="NOw_XCwe5CAeWql_Ks_G-12" vertex="1" connectable="0">
          <mxGeometry x="-0.3006" y="1" relative="1" as="geometry">
            <mxPoint y="1" as="offset" />
          </mxGeometry>
        </mxCell>
        <mxCell id="OZZsg3iI7NkFLa2h2YQp-5" style="edgeStyle=orthogonalEdgeStyle;rounded=0;orthogonalLoop=1;jettySize=auto;html=1;exitX=0;exitY=0.5;exitDx=0;exitDy=0;entryX=0.5;entryY=0;entryDx=0;entryDy=0;" parent="1" source="pUPe7-vXU53xOh2iTXP--1" target="OZZsg3iI7NkFLa2h2YQp-4" edge="1">
          <mxGeometry relative="1" as="geometry" />
        </mxCell>
        <mxCell id="OZZsg3iI7NkFLa2h2YQp-14" value="no" style="edgeLabel;html=1;align=center;verticalAlign=middle;resizable=0;points=[];" parent="OZZsg3iI7NkFLa2h2YQp-5" vertex="1" connectable="0">
          <mxGeometry x="0.1079" relative="1" as="geometry">
            <mxPoint as="offset" />
          </mxGeometry>
        </mxCell>
        <mxCell id="pUPe7-vXU53xOh2iTXP--1" value="&lt;div&gt;User wants&lt;/div&gt;&lt;div&gt;&amp;nbsp;to change preferences?&lt;/div&gt;" style="rhombus;whiteSpace=wrap;html=1;fillColor=#76608a;strokeColor=#432D57;fontColor=#ffffff;" parent="1" vertex="1">
          <mxGeometry x="-608" y="235" width="121" height="121" as="geometry" />
        </mxCell>
        <mxCell id="NOw_XCwe5CAeWql_Ks_G-8" style="edgeStyle=orthogonalEdgeStyle;rounded=0;orthogonalLoop=1;jettySize=auto;html=1;exitX=0.5;exitY=1;exitDx=0;exitDy=0;entryX=0.5;entryY=0;entryDx=0;entryDy=0;" parent="1" source="NOw_XCwe5CAeWql_Ks_G-3" target="9emtBQFoJuCTRoUykFiL-4" edge="1">
          <mxGeometry relative="1" as="geometry">
            <Array as="points">
              <mxPoint x="-345" y="340" />
              <mxPoint x="-345" y="340" />
            </Array>
          </mxGeometry>
        </mxCell>
        <mxCell id="NOw_XCwe5CAeWql_Ks_G-9" value="yes" style="edgeLabel;html=1;align=center;verticalAlign=middle;resizable=0;points=[];" parent="NOw_XCwe5CAeWql_Ks_G-8" vertex="1" connectable="0">
          <mxGeometry x="-0.3723" y="1" relative="1" as="geometry">
            <mxPoint y="21" as="offset" />
          </mxGeometry>
        </mxCell>
        <mxCell id="NOw_XCwe5CAeWql_Ks_G-14" style="edgeStyle=orthogonalEdgeStyle;rounded=0;orthogonalLoop=1;jettySize=auto;html=1;exitX=0;exitY=1;exitDx=0;exitDy=0;" parent="1" source="NOw_XCwe5CAeWql_Ks_G-3" target="9emtBQFoJuCTRoUykFiL-40" edge="1">
          <mxGeometry relative="1" as="geometry">
            <mxPoint x="-498" y="670" as="targetPoint" />
            <Array as="points">
              <mxPoint x="-468" y="328" />
            </Array>
          </mxGeometry>
        </mxCell>
        <mxCell id="NOw_XCwe5CAeWql_Ks_G-15" value="no" style="edgeLabel;html=1;align=center;verticalAlign=middle;resizable=0;points=[];" parent="NOw_XCwe5CAeWql_Ks_G-14" vertex="1" connectable="0">
          <mxGeometry x="-0.1367" relative="1" as="geometry">
            <mxPoint y="1" as="offset" />
          </mxGeometry>
        </mxCell>
        <mxCell id="NOw_XCwe5CAeWql_Ks_G-3" value="&lt;div&gt;Restaurant&lt;/div&gt;&lt;div&gt;&amp;nbsp;with given preferences&lt;/div&gt;&lt;div&gt;&amp;nbsp;exists?&lt;/div&gt;" style="rhombus;whiteSpace=wrap;html=1;fillColor=#76608a;fontColor=#ffffff;strokeColor=#432D57;" parent="1" vertex="1">
          <mxGeometry x="-405" y="240" width="120" height="110" as="geometry" />
        </mxCell>
        <mxCell id="OZZsg3iI7NkFLa2h2YQp-10" style="edgeStyle=orthogonalEdgeStyle;rounded=0;orthogonalLoop=1;jettySize=auto;html=1;exitX=0.5;exitY=0;exitDx=0;exitDy=0;" parent="1" source="OZZsg3iI7NkFLa2h2YQp-1" target="9emtBQFoJuCTRoUykFiL-40" edge="1">
          <mxGeometry relative="1" as="geometry" />
        </mxCell>
        <mxCell id="OZZsg3iI7NkFLa2h2YQp-13" value="no" style="edgeLabel;html=1;align=center;verticalAlign=middle;resizable=0;points=[];" parent="OZZsg3iI7NkFLa2h2YQp-10" vertex="1" connectable="0">
          <mxGeometry x="-0.0624" relative="1" as="geometry">
            <mxPoint as="offset" />
          </mxGeometry>
        </mxCell>
        <mxCell id="R_T_qnn50K4IRs_C791W-9" value="yes" style="edgeStyle=orthogonalEdgeStyle;rounded=0;orthogonalLoop=1;jettySize=auto;html=1;entryX=0.25;entryY=0;entryDx=0;entryDy=0;exitX=0.5;exitY=1;exitDx=0;exitDy=0;" edge="1" parent="1" source="OZZsg3iI7NkFLa2h2YQp-1" target="9emtBQFoJuCTRoUykFiL-44">
          <mxGeometry x="-0.6962" relative="1" as="geometry">
            <Array as="points">
              <mxPoint x="-504" y="920" />
              <mxPoint x="-788" y="920" />
            </Array>
            <mxPoint as="offset" />
          </mxGeometry>
        </mxCell>
        <mxCell id="OZZsg3iI7NkFLa2h2YQp-1" value="&lt;div&gt;Confirmation&lt;/div&gt;&lt;div&gt;&amp;nbsp;of exit?&lt;/div&gt;" style="rhombus;whiteSpace=wrap;html=1;fillColor=#76608a;fontColor=#ffffff;strokeColor=#432D57;" parent="1" vertex="1">
          <mxGeometry x="-554" y="777" width="100" height="90" as="geometry" />
        </mxCell>
        <mxCell id="OZZsg3iI7NkFLa2h2YQp-8" style="edgeStyle=orthogonalEdgeStyle;rounded=0;orthogonalLoop=1;jettySize=auto;html=1;exitX=1;exitY=0.5;exitDx=0;exitDy=0;" parent="1" source="OZZsg3iI7NkFLa2h2YQp-4" target="OZZsg3iI7NkFLa2h2YQp-7" edge="1">
          <mxGeometry relative="1" as="geometry" />
        </mxCell>
        <mxCell id="OZZsg3iI7NkFLa2h2YQp-4" value="8. Confirm user wants to leave" style="rounded=0;whiteSpace=wrap;html=1;fillColor=#76608a;fontColor=#ffffff;strokeColor=#432D57;" parent="1" vertex="1">
          <mxGeometry x="-826" y="792" width="120" height="60" as="geometry" />
        </mxCell>
        <mxCell id="lJSXZF7D1Kf3d4Dtztef-12" style="edgeStyle=orthogonalEdgeStyle;rounded=0;orthogonalLoop=1;jettySize=auto;html=1;exitX=1;exitY=0.5;exitDx=0;exitDy=0;entryX=0;entryY=0.5;entryDx=0;entryDy=0;" parent="1" source="OZZsg3iI7NkFLa2h2YQp-7" target="OZZsg3iI7NkFLa2h2YQp-1" edge="1">
          <mxGeometry relative="1" as="geometry">
            <mxPoint x="-723" y="822" as="targetPoint" />
          </mxGeometry>
        </mxCell>
        <mxCell id="OZZsg3iI7NkFLa2h2YQp-7" value="User response" style="ellipse;whiteSpace=wrap;html=1;fillColor=#6d8764;fontColor=#ffffff;strokeColor=#3A5431;" parent="1" vertex="1">
          <mxGeometry x="-679" y="797" width="97.5" height="50" as="geometry" />
        </mxCell>
        <mxCell id="OZZsg3iI7NkFLa2h2YQp-40" style="edgeStyle=orthogonalEdgeStyle;rounded=0;orthogonalLoop=1;jettySize=auto;html=1;exitX=0.5;exitY=1;exitDx=0;exitDy=0;entryX=0.5;entryY=0;entryDx=0;entryDy=0;" parent="1" source="OZZsg3iI7NkFLa2h2YQp-16" target="NOw_XCwe5CAeWql_Ks_G-3" edge="1">
          <mxGeometry relative="1" as="geometry" />
        </mxCell>
        <mxCell id="OZZsg3iI7NkFLa2h2YQp-41" value="no" style="edgeLabel;html=1;align=center;verticalAlign=middle;resizable=0;points=[];" parent="OZZsg3iI7NkFLa2h2YQp-40" vertex="1" connectable="0">
          <mxGeometry x="-0.1432" relative="1" as="geometry">
            <mxPoint as="offset" />
          </mxGeometry>
        </mxCell>
        <mxCell id="OZZsg3iI7NkFLa2h2YQp-42" style="edgeStyle=orthogonalEdgeStyle;rounded=0;orthogonalLoop=1;jettySize=auto;html=1;exitX=0;exitY=0.5;exitDx=0;exitDy=0;entryX=1;entryY=0.5;entryDx=0;entryDy=0;" parent="1" source="OZZsg3iI7NkFLa2h2YQp-16" target="OZZsg3iI7NkFLa2h2YQp-19" edge="1">
          <mxGeometry relative="1" as="geometry" />
        </mxCell>
        <mxCell id="OZZsg3iI7NkFLa2h2YQp-43" value="yes" style="edgeLabel;html=1;align=center;verticalAlign=middle;resizable=0;points=[];" parent="OZZsg3iI7NkFLa2h2YQp-42" vertex="1" connectable="0">
          <mxGeometry x="0.3579" relative="1" as="geometry">
            <mxPoint x="18" as="offset" />
          </mxGeometry>
        </mxCell>
        <mxCell id="OZZsg3iI7NkFLa2h2YQp-16" value="Big misspelling detected" style="rhombus;whiteSpace=wrap;html=1;fillColor=#76608a;fontColor=#ffffff;strokeColor=#432D57;" parent="1" vertex="1">
          <mxGeometry x="-395.5" y="139" width="100" height="80" as="geometry" />
        </mxCell>
        <mxCell id="OZZsg3iI7NkFLa2h2YQp-26" style="edgeStyle=orthogonalEdgeStyle;rounded=0;orthogonalLoop=1;jettySize=auto;html=1;exitX=0.5;exitY=0;exitDx=0;exitDy=0;entryX=0;entryY=0.5;entryDx=0;entryDy=0;" parent="1" edge="1" target="9emtBQFoJuCTRoUykFiL-2">
          <mxGeometry relative="1" as="geometry">
            <mxPoint x="-504" y="154" as="sourcePoint" />
            <mxPoint x="-401.5" y="89" as="targetPoint" />
            <Array as="points">
              <mxPoint x="-504" y="89" />
            </Array>
          </mxGeometry>
        </mxCell>
        <mxCell id="OZZsg3iI7NkFLa2h2YQp-19" value="2. Ask for correction with error message" style="rounded=0;whiteSpace=wrap;html=1;fillColor=#76608a;strokeColor=#432D57;fontColor=#ffffff;" parent="1" vertex="1">
          <mxGeometry x="-555.5" y="154" width="105" height="51" as="geometry" />
        </mxCell>
        <mxCell id="lJSXZF7D1Kf3d4Dtztef-3" style="edgeStyle=orthogonalEdgeStyle;rounded=0;orthogonalLoop=1;jettySize=auto;html=1;exitX=0.5;exitY=0;exitDx=0;exitDy=0;entryX=0.5;entryY=1;entryDx=0;entryDy=0;" parent="1" source="lJSXZF7D1Kf3d4Dtztef-1" target="pUPe7-vXU53xOh2iTXP--1" edge="1">
          <mxGeometry relative="1" as="geometry" />
        </mxCell>
        <mxCell id="lJSXZF7D1Kf3d4Dtztef-4" value="no" style="edgeLabel;html=1;align=center;verticalAlign=middle;resizable=0;points=[];" parent="lJSXZF7D1Kf3d4Dtztef-3" vertex="1" connectable="0">
          <mxGeometry x="-0.0484" y="1" relative="1" as="geometry">
            <mxPoint as="offset" />
          </mxGeometry>
        </mxCell>
        <mxCell id="lJSXZF7D1Kf3d4Dtztef-8" style="edgeStyle=orthogonalEdgeStyle;rounded=0;orthogonalLoop=1;jettySize=auto;html=1;exitX=0;exitY=0.5;exitDx=0;exitDy=0;entryX=1;entryY=0.5;entryDx=0;entryDy=0;" parent="1" source="lJSXZF7D1Kf3d4Dtztef-1" target="lJSXZF7D1Kf3d4Dtztef-5" edge="1">
          <mxGeometry relative="1" as="geometry" />
        </mxCell>
        <mxCell id="lJSXZF7D1Kf3d4Dtztef-9" value="yes" style="edgeLabel;html=1;align=center;verticalAlign=middle;resizable=0;points=[];" parent="lJSXZF7D1Kf3d4Dtztef-8" vertex="1" connectable="0">
          <mxGeometry x="-0.1222" y="2" relative="1" as="geometry">
            <mxPoint y="-2" as="offset" />
          </mxGeometry>
        </mxCell>
        <mxCell id="lJSXZF7D1Kf3d4Dtztef-1" value="Big misspelling detected" style="rhombus;whiteSpace=wrap;html=1;fillColor=#76608a;fontColor=#ffffff;strokeColor=#432D57;" parent="1" vertex="1">
          <mxGeometry x="-597" y="394.25" width="99" height="90.75" as="geometry" />
        </mxCell>
        <mxCell id="lJSXZF7D1Kf3d4Dtztef-10" style="edgeStyle=orthogonalEdgeStyle;rounded=0;orthogonalLoop=1;jettySize=auto;html=1;exitX=0.5;exitY=1;exitDx=0;exitDy=0;entryX=-0.003;entryY=0.566;entryDx=0;entryDy=0;entryPerimeter=0;" parent="1" source="lJSXZF7D1Kf3d4Dtztef-5" target="9emtBQFoJuCTRoUykFiL-41" edge="1">
          <mxGeometry relative="1" as="geometry" />
        </mxCell>
        <mxCell id="lJSXZF7D1Kf3d4Dtztef-5" value="7. Ask for correction with error message" style="rounded=0;whiteSpace=wrap;html=1;fillColor=#76608a;strokeColor=#432D57;fontColor=#ffffff;" parent="1" vertex="1">
          <mxGeometry x="-747" y="413.75" width="105" height="51" as="geometry" />
        </mxCell>
        <mxCell id="R_T_qnn50K4IRs_C791W-7" value="no" style="edgeStyle=orthogonalEdgeStyle;rounded=0;orthogonalLoop=1;jettySize=auto;html=1;exitX=0.5;exitY=0;exitDx=0;exitDy=0;entryX=0.5;entryY=1;entryDx=0;entryDy=0;" edge="1" parent="1" source="lJSXZF7D1Kf3d4Dtztef-19" target="9emtBQFoJuCTRoUykFiL-1">
          <mxGeometry relative="1" as="geometry" />
        </mxCell>
        <mxCell id="R_T_qnn50K4IRs_C791W-12" value="yes" style="edgeStyle=orthogonalEdgeStyle;rounded=0;orthogonalLoop=1;jettySize=auto;html=1;entryX=1;entryY=0.75;entryDx=0;entryDy=0;exitX=0.5;exitY=1;exitDx=0;exitDy=0;" edge="1" parent="1" source="lJSXZF7D1Kf3d4Dtztef-19" target="9emtBQFoJuCTRoUykFiL-44">
          <mxGeometry x="-0.6945" relative="1" as="geometry">
            <mxPoint as="offset" />
          </mxGeometry>
        </mxCell>
        <mxCell id="lJSXZF7D1Kf3d4Dtztef-19" value="User wants to leave?" style="rhombus;whiteSpace=wrap;html=1;fillColor=#76608a;fontColor=#ffffff;strokeColor=#432D57;" parent="1" vertex="1">
          <mxGeometry x="-115" y="1007" width="100" height="80" as="geometry" />
        </mxCell>
        <mxCell id="qg6AqYRdWCEbCaG56nRq-1" value="&lt;div&gt;9. Ask for additional&lt;/div&gt;&lt;div&gt;requirements&lt;br&gt;&lt;/div&gt;" style="rounded=0;whiteSpace=wrap;html=1;fillColor=#76608a;fontColor=#ffffff;strokeColor=#432D57;" parent="1" vertex="1">
          <mxGeometry x="-406" y="798.5" width="120" height="60" as="geometry" />
        </mxCell>
        <mxCell id="qg6AqYRdWCEbCaG56nRq-4" value="" style="edgeStyle=orthogonalEdgeStyle;rounded=0;orthogonalLoop=1;jettySize=auto;html=1;entryX=0;entryY=0.5;entryDx=0;entryDy=0;" parent="1" source="qg6AqYRdWCEbCaG56nRq-1" target="qg6AqYRdWCEbCaG56nRq-3" edge="1">
          <mxGeometry relative="1" as="geometry">
            <mxPoint x="-262" y="829" as="sourcePoint" />
            <mxPoint x="-134" y="829" as="targetPoint" />
          </mxGeometry>
        </mxCell>
        <mxCell id="qg6AqYRdWCEbCaG56nRq-3" value="User response" style="ellipse;whiteSpace=wrap;html=1;fillColor=#6d8764;fontColor=#ffffff;strokeColor=#3A5431;" parent="1" vertex="1">
          <mxGeometry x="-253" y="798.75" width="100" height="60" as="geometry" />
        </mxCell>
        <mxCell id="F_FJY7EMFOjxKulT_jWd-2" value="" style="edgeStyle=orthogonalEdgeStyle;rounded=0;orthogonalLoop=1;jettySize=auto;html=1;entryX=0;entryY=0.5;entryDx=0;entryDy=0;" parent="1" source="qg6AqYRdWCEbCaG56nRq-3" target="F_FJY7EMFOjxKulT_jWd-1" edge="1">
          <mxGeometry relative="1" as="geometry">
            <mxPoint x="-129" y="829" as="sourcePoint" />
            <mxPoint x="66" y="828" as="targetPoint" />
          </mxGeometry>
        </mxCell>
        <mxCell id="F_FJY7EMFOjxKulT_jWd-3" value="yes" style="edgeStyle=orthogonalEdgeStyle;rounded=0;orthogonalLoop=1;jettySize=auto;html=1;exitX=0.5;exitY=0;exitDx=0;exitDy=0;entryX=0.75;entryY=0;entryDx=0;entryDy=0;" parent="1" source="F_FJY7EMFOjxKulT_jWd-1" target="qg6AqYRdWCEbCaG56nRq-1" edge="1">
          <mxGeometry relative="1" as="geometry" />
        </mxCell>
        <mxCell id="R_T_qnn50K4IRs_C791W-6" value="no" style="edgeStyle=orthogonalEdgeStyle;rounded=0;orthogonalLoop=1;jettySize=auto;html=1;exitX=0.5;exitY=1;exitDx=0;exitDy=0;entryX=0.5;entryY=0;entryDx=0;entryDy=0;" edge="1" parent="1" target="9emtBQFoJuCTRoUykFiL-1">
          <mxGeometry x="-0.1429" relative="1" as="geometry">
            <mxPoint x="-64.99999999999977" y="885.75" as="sourcePoint" />
            <mxPoint x="-64.99999999999977" y="919" as="targetPoint" />
            <mxPoint as="offset" />
          </mxGeometry>
        </mxCell>
        <mxCell id="F_FJY7EMFOjxKulT_jWd-1" value="&lt;div&gt;No restaurant&lt;/div&gt;&lt;div&gt;&amp;nbsp;fits additional requirements ?&lt;br&gt;&lt;/div&gt;" style="rhombus;whiteSpace=wrap;html=1;fillColor=#76608a;fontColor=#ffffff;strokeColor=#432D57;" parent="1" vertex="1">
          <mxGeometry x="-125" y="772" width="120" height="113.75" as="geometry" />
        </mxCell>
        <mxCell id="R_T_qnn50K4IRs_C791W-3" style="edgeStyle=orthogonalEdgeStyle;rounded=0;orthogonalLoop=1;jettySize=auto;html=1;exitX=0.25;exitY=0;exitDx=0;exitDy=0;entryX=0.571;entryY=0.984;entryDx=0;entryDy=0;entryPerimeter=0;" edge="1" parent="1" source="9emtBQFoJuCTRoUykFiL-40" target="9emtBQFoJuCTRoUykFiL-41">
          <mxGeometry relative="1" as="geometry" />
        </mxCell>
        <mxCell id="R_T_qnn50K4IRs_C791W-8" value="no" style="edgeStyle=orthogonalEdgeStyle;rounded=0;orthogonalLoop=1;jettySize=auto;html=1;entryX=0.9;entryY=0;entryDx=0;entryDy=0;entryPerimeter=0;" edge="1" parent="1" source="9emtBQFoJuCTRoUykFiL-50" target="9emtBQFoJuCTRoUykFiL-44">
          <mxGeometry relative="1" as="geometry" />
        </mxCell>
      </root>
    </mxGraphModel>
  </diagram>
</mxfile>
